<?xml version="1.0" encoding="UTF-8"?>
<svg width="350px" height="126px" viewBox="0 0 350 126" version="1.1" xmlns="http://www.w3.org/2000/svg" xmlns:xlink="http://www.w3.org/1999/xlink">
    <!-- Generator: Sketch 50.2 (55047) - http://www.bohemiancoding.com/sketch -->
    <title>Group</title>
    <desc>Created with Sketch.</desc>
    <defs></defs>
    <g id="Page-1" stroke="none" stroke-width="1" fill="none" fill-rule="evenodd">
        <g id="Artboard" transform="translate(-425.000000, -262.000000)">
            <g id="Group" transform="translate(425.000000, 262.000000)">
                <rect id="Rectangle-Copy-6" fill="#5843CF" opacity="0.200000003" x="132" y="0" width="3" height="126" rx="1.5"></rect>
                <path d="M155,94.421875 L155,31.859375 L172.488281,31.859375 C177.615911,31.859375 182.213521,33.026681 186.28125,35.3613281 C190.348979,37.6959752 193.521473,41.0403428 195.798828,45.3945312 C198.076183,49.7487197 199.214844,54.7043993 199.214844,60.2617188 L199.214844,66.0195312 C199.214844,71.6054967 198.083345,76.5611763 195.820312,80.8867188 C193.55728,85.2122612 190.370463,88.5494674 186.259766,90.8984375 C182.149068,93.2474076 177.429714,94.421875 172.101562,94.421875 L155,94.421875 Z M160.285156,36.3710938 L160.285156,89.953125 L172.144531,89.953125 C178.733106,89.953125 184.018209,87.7689021 188,83.4003906 C191.981791,79.0318792 193.972656,73.1237352 193.972656,65.6757812 L193.972656,60.1757812 C193.972656,52.9856411 192.010436,47.2278862 188.085938,42.9023438 C184.161439,38.5768013 178.990918,36.3997397 172.574219,36.3710938 L160.285156,36.3710938 Z M251.855469,66.5351562 C251.855469,72.2929975 250.860036,77.3489366 248.869141,81.703125 C246.878245,86.0573134 244.035175,89.4088424 240.339844,91.7578125 C236.644513,94.1067826 232.376326,95.28125 227.535156,95.28125 C220.230432,95.28125 214.32945,92.6673438 209.832031,87.4394531 C205.334613,82.2115624 203.085938,75.1575965 203.085938,66.2773438 L203.085938,59.8320312 C203.085938,54.1314819 204.095693,49.0827043 206.115234,44.6855469 C208.134776,40.2883895 210.992169,36.9082149 214.6875,34.5449219 C218.382831,32.1816288 222.636695,31 227.449219,31 C232.261743,31 236.508445,32.1601446 240.189453,34.4804688 C243.870461,36.8007929 246.713532,40.080708 248.71875,44.3203125 C250.723968,48.559917 251.769531,53.4726283 251.855469,59.0585938 L251.855469,66.5351562 Z M246.570312,59.7460938 C246.570312,52.2122019 244.865902,46.3112193 241.457031,42.0429688 C238.04816,37.7747182 233.378936,35.640625 227.449219,35.640625 C221.634086,35.640625 217.000668,37.7818796 213.548828,42.0644531 C210.096988,46.3470266 208.371094,52.3267845 208.371094,60.0039062 L208.371094,66.5351562 C208.371094,73.9544642 210.089827,79.8339627 213.527344,84.1738281 C216.964861,88.5136936 221.634085,90.6835938 227.535156,90.6835938 C233.522165,90.6835938 238.191389,88.5423391 241.542969,84.2597656 C244.894548,79.9771921 246.570312,74.011757 246.570312,66.3632812 L246.570312,59.7460938 Z M302.476562,74.9140625 C301.760413,81.5026371 299.404317,86.5442534 295.408203,90.0390625 C291.412089,93.5338716 286.091179,95.28125 279.445312,95.28125 C274.804664,95.28125 270.70119,94.1211054 267.134766,91.8007812 C263.568342,89.4804571 260.811208,86.1933806 258.863281,81.9394531 C256.915355,77.6855256 255.927083,72.822944 255.898438,67.3515625 L255.898438,59.2304688 C255.898438,53.6731493 256.872386,48.7461152 258.820312,44.4492188 C260.768239,40.1523223 263.568341,36.8366002 267.220703,34.5019531 C270.873065,32.167306 275.076799,31 279.832031,31 C286.53519,31 291.827455,32.8118308 295.708984,36.4355469 C299.590514,40.0592629 301.846351,45.0650722 302.476562,51.453125 L297.148438,51.453125 C295.830723,40.8254677 290.058645,35.5117188 279.832031,35.5117188 C274.160128,35.5117188 269.641293,37.6314892 266.275391,41.8710938 C262.909488,46.1106983 261.226562,51.9687126 261.226562,59.4453125 L261.226562,67.09375 C261.226562,74.3125361 262.86652,80.070291 266.146484,84.3671875 C269.426449,88.664084 273.859347,90.8125 279.445312,90.8125 C284.973986,90.8125 289.141913,89.4876435 291.949219,86.8378906 C294.756524,84.1881378 296.48958,80.2135682 297.148438,74.9140625 L302.476562,74.9140625 Z M343.730469,79.0390625 C343.730469,75.5728993 342.513033,72.8300882 340.078125,70.8105469 C337.643217,68.7910055 333.188834,66.8717539 326.714844,65.0527344 C320.240853,63.2337149 315.514338,61.2500107 312.535156,59.1015625 C308.295552,56.065089 306.175781,52.083358 306.175781,47.15625 C306.175781,42.3723719 308.145163,38.4837389 312.083984,35.4902344 C316.022806,32.4967298 321.057261,31 327.1875,31 C331.341167,31 335.057926,31.8020753 338.337891,33.40625 C341.617855,35.0104247 344.160147,37.2447773 345.964844,40.109375 C347.76954,42.9739727 348.671875,46.1679511 348.671875,49.6914062 L343.34375,49.6914062 C343.34375,45.4231557 341.882827,41.9928515 338.960938,39.4003906 C336.039048,36.8079297 332.114608,35.5117188 327.1875,35.5117188 C322.403622,35.5117188 318.593764,36.5787654 315.757812,38.7128906 C312.921861,40.8470159 311.503906,43.6327953 311.503906,47.0703125 C311.503906,50.2500159 312.778633,52.8424379 315.328125,54.8476562 C317.877617,56.8528746 321.959607,58.6217371 327.574219,60.1542969 C333.18883,61.6868566 337.442694,63.2766845 340.335938,64.9238281 C343.229181,66.5709718 345.406243,68.5403531 346.867188,70.8320312 C348.328132,73.1237094 349.058594,75.8307136 349.058594,78.953125 C349.058594,83.880233 347.089212,87.8333184 343.150391,90.8125 C339.211569,93.7916816 334.019563,95.28125 327.574219,95.28125 C323.162738,95.28125 319.116555,94.4934975 315.435547,92.9179688 C311.754539,91.34244 308.961598,89.1367329 307.056641,86.3007812 C305.151683,83.4648296 304.199219,80.21356 304.199219,76.546875 L309.484375,76.546875 C309.484375,80.9583554 311.131494,84.4387893 314.425781,86.9882812 C317.720069,89.5377732 322.102837,90.8125 327.574219,90.8125 C332.444035,90.8125 336.354152,89.738292 339.304688,87.5898438 C342.255223,85.4413955 343.730469,82.5911636 343.730469,79.0390625 Z" id="DOCS" fill="#5843CF"></path>
                <path d="M46.6455938,86.760742 C44.8197021,89.3569317 41.9596568,91.3824999 38.0653722,92.8375074 C34.1710875,94.2925148 29.813263,95.0200076 24.9917677,95.0200076 C20.1132133,95.0200076 15.7767856,93.8503133 11.9823544,91.5108896 C8.18792318,89.1714658 5.2494228,85.8620868 3.16676508,81.5826531 C1.08410736,77.3032194 0.0285295578,72.3962091 0,66.8614749 L0,58.9873563 C0,50.3429003 2.18247844,43.5173059 6.54750078,38.5103685 C10.9125231,33.5034311 16.7752593,31 24.1358852,31 C30.5550357,31 35.7188083,32.6332927 39.6273577,35.8999271 C43.5359071,39.1665614 45.8610312,43.6670317 46.6027997,49.4014728 L41.3391226,49.4014728 C40.5688245,44.8367435 38.7072988,41.3775865 35.7544896,39.023898 C32.8016803,36.6702095 28.9431155,35.4933829 24.1786794,35.4933829 C18.3586496,35.4933829 13.7511951,37.5617448 10.3561777,41.6985307 C6.96116033,45.8353166 5.2636771,51.6695236 5.2636771,59.2013269 L5.2636771,66.561916 C5.2636771,71.2978226 6.06962502,75.4844724 7.68154503,79.121991 C9.29346505,82.7595097 11.6043246,85.5767612 14.6141929,87.5738303 C17.6240613,89.5708993 21.0832183,90.5694189 24.9917677,90.5694189 C29.5279674,90.5694189 33.4221936,89.8561906 36.6745632,88.4297127 C38.7857505,87.4882373 40.3548526,86.3898658 41.3819167,85.1345653 L41.3819167,69.0439751 L24.6494147,69.0439751 L24.6494147,64.5933864 L46.6455938,64.5933864 L46.6455938,86.760742 Z M61.0283094,94.1641252 L55.7646323,94.1641252 L55.7646323,31.8558825 L61.0283094,31.8558825 L61.0283094,94.1641252 Z M112,36.3492653 L90.6457327,36.3492653 L90.6457327,94.1641252 L85.3820556,94.1641252 L85.3820556,36.3492653 L64.0705825,36.3492653 L64.0705825,31.8558825 L112,31.8558825 L112,36.3492653 Z" id="GIT" fill="#DEDEDE"></path>
            </g>
        </g>
    </g>
</svg>